<?xml version="1.0" standalone="no"?><!DOCTYPE svg PUBLIC "-//W3C//DTD SVG 1.1//EN" "http://www.w3.org/Graphics/SVG/1.1/DTD/svg11.dtd"><svg t="1668087317345" class="icon" viewBox="0 0 1024 1024" version="1.1" xmlns="http://www.w3.org/2000/svg" p-id="2065" xmlns:xlink="http://www.w3.org/1999/xlink" width="200" height="200"><path d="M309.653333 168.32a360.789333 360.789333 0 0 1 117.76-51.733333 85.333333 85.333333 0 0 1 169.173334 0c42.666667 10.197333 82.410667 27.946667 117.76 51.733333a85.333333 85.333333 0 0 1 115.136 125.546667 360.277333 360.277333 0 0 1 35.264 90.88 85.333333 85.333333 0 0 1-0.042667 169.173333 361.813333 361.813333 0 0 1-35.264 90.88 85.333333 85.333333 0 0 1-115.072 125.589333 362.688 362.688 0 0 1-100.309333 47.04l-11.989334-40.938666a320.064 320.064 0 0 0 86.826667-40.405334 85.333333 85.333333 0 0 1 104.170667-113.664 319.296 319.296 0 0 0 28.970666-73.685333 85.354667 85.354667 0 0 1 0.021334-158.826667 317.909333 317.909333 0 0 0-28.970667-73.664 85.333333 85.333333 0 0 1-104.192-113.621333 318.378667 318.378667 0 0 0-97.472-43.349333 85.354667 85.354667 0 0 1-158.848 0 318.378667 318.378667 0 0 0-97.472 43.349333 85.333333 85.333333 0 0 1-104.192 113.621333 317.909333 317.909333 0 0 0-28.970667 73.664 85.354667 85.354667 0 0 1 0.021334 158.826667c6.613333 25.898667 16.426667 50.602667 28.992 73.664a85.333333 85.333333 0 0 1 104.149333 113.706667 318.698667 318.698667 0 0 0 85.717333 40.064l-12.138666 40.896a361.301333 361.301333 0 0 1-99.072-46.677334 85.333333 85.333333 0 0 1-115.050667-125.610666 361.792 361.792 0 0 1-35.264-90.88 85.333333 85.333333 0 0 1-0.042667-169.130667c7.68-32.192 19.648-62.698667 35.285334-90.901333a85.333333 85.333333 0 0 1 115.136-125.546667zM512 170.666667a42.666667 42.666667 0 1 0 0-85.333334 42.666667 42.666667 0 0 0 0 85.333334z m-256 106.666666a42.666667 42.666667 0 1 0 0-85.333333 42.666667 42.666667 0 0 0 0 85.333333zM170.666667 512a42.666667 42.666667 0 1 0 0-85.333333 42.666667 42.666667 0 0 0 0 85.333333z m85.333333 234.666667a42.666667 42.666667 0 1 0 0-85.333334 42.666667 42.666667 0 0 0 0 85.333334z m512 0a42.666667 42.666667 0 1 0 0-85.333334 42.666667 42.666667 0 0 0 0 85.333334z m85.333333-234.666667a42.666667 42.666667 0 1 0 0-85.333333 42.666667 42.666667 0 0 0 0 85.333333z m-85.333333-234.666667a42.666667 42.666667 0 1 0 0-85.333333 42.666667 42.666667 0 0 0 0 85.333333zM456.213333 572.373333c30.805333-89.002667 80.768-88.96 111.552 0L679.808 896c7.701333 22.293333-5.077333 40.341333-28.8 40.341333H372.970667c-23.616 0-36.501333-18.069333-28.8-40.32l112.021333-323.669333z m177.621334 321.301334l-106.389334-307.370667c-5.013333-14.485333-10.389333-25.514667-15.445333-32.682667-5.056 7.168-10.453333 18.197333-15.466667 32.682667l-106.389333 307.370667h243.690667z" fill="#3D3D3D" p-id="2066"></path></svg>